<svg xmlns="http://www.w3.org/2000/svg" viewBox="130 142 750 750"><path fill="#60c0df" d="M326 162h375l16 2 21 5 22 8 18 10 11 8 11 9 13 13 6 8 6 9 8 14 7 15 8 24 2 9 2 13 1 16v324l-1 16-5 23-5 16-9 22-12 19-9 11-21 21-17 12-14 8-20 8-9 3-15 3-17 3-36 2H355l-8-1-23-1-25-4-20-6-17-7-17-10-16-12-21-21-16-24-9-19-7-20-4-18-2-16V317l1-3 1-12 4-17 5-16 6-15 8-15 10-14 7-9 15-15 14-10 11-7 21-10 18-6 18-4 13-1z"/><path fill="#040d10" d="M326 162h375l16 2 21 5 22 8 18 10 11 8 11 9 13 13 6 8 6 9 8 14 7 15 8 24 2 9 2 13 1 16v324l-1 16-5 23-5 16-9 22-12 19-9 11-21 21-17 12-14 8-20 8-9 3-15 3-17 3-36 2H355l-8-1-23-1-25-4-20-6-17-7-17-10-16-12-21-21-16-24-9-19-7-20-4-18-2-16V317l1-3 1-12 4-17 5-16 6-15 8-15 10-14 7-9 15-15 14-10 11-7 21-10 18-6 18-4 13-1zm10 29-21 2-21 5-20 8-14 8-14 11-12 12-10 13-9 16-7 16-5 17-3 17-1 20v301l2 26 4 18 6 18 8 16 6 11 13 16 8 8 14 11 16 9 11 5 19 6h4l12-19 13-21 12-19 14-23 15-24 13-21 12-19 11-18 11-17 3-19 5-10 6-4 3-1 14-1-6-8-5-9-4-12-5 2-17 10-24 14-7 3h-16l-9-4-4 1-18 10-11 7-5 10-7 6-8 4-4 1h-17l-11-4-10-8-9-12-7-14-3-12v-13l3-10 6-9 10-6 6-2h13l5 1 25-15 7-5 4-13 8-9 18-11 32-19 21-13 6-18 7-9 5-4 26-16 23-14 26-16 28-17 25-15 13-8 5-4 4-14 7-12 10-8 25-16 24-15 19-12 15-9 9-4 11-1 11 2 14 7 14 11 13 13 10 13 14 21 9 17 7 19 3 14v21l-4 13-6 8-5 5-9 6-29 16-24 13-23 13-11 6-4 1h-18l-11-1-24 14-15 9-29 17-13 8-29 17-8 5 6 12 2 8v14l-4 13-7 11-4 4 18 2 6 4 5 6 3 9 2 15 13 20 15 24 16 26 10 16 12 19 13 21 30 48 8 12h12l21-2 19-4 16-6 19-10 16-12 13-12 13-17 10-18 9-25 4-20 1-10V322l-3-22-6-21-9-19-11-16-9-10-5-6-8-7-12-9-17-9-16-6-18-4-24-2z"/><path fill="#fafcfc" d="m570 333 2 2 9 25 11 21 10 15 11 13 7 7 2 1v2l-26 15-27 16-15 9-44 26-3 1-12-4h-18l-12 4-6 1-9-9-10-15-6-14-3-15v-9l3-9 10-7 21-13 17-10 28-17 32-19 25-15zm91-79h1l4 24 5 17 7 17 8 15 7 11 9 11 10 11 14 11 2 1-1 3-26 14-21 12-15 8-5 1-11-4-11-8-10-9-10-12-9-14-10-25-4-17v-19l4-8 8-6 38-24z"/><path fill="#c1c3c1" d="m596 389 4 4 7 9 9 10 6 5v2l-26 15-27 16-15 9-44 26-3 1-12-4h-18l-12 4-6 1-9-9v-2l16-9 9-6 21-12 40-24 11-7 12-6 9-6 14-8 12-7h2z"/><path fill="#040d10" d="M389 227h6l3 3 6 35 3 10 7 8 8 4 27 7 4 4v6l-4 4-20 5-12 5-7 6-5 13-6 35-2 4-2 1h-6l-3-4-6-34-4-12-5-7-12-6-13-4-11-3-4-4v-6l4-3 25-7 12-6 5-7 4-15 5-30z"/><path fill="#fafcfc" d="m408 451 2 3 6 16 9 17 8 11 8 8v2l-24 14-26 15-9 5-9-2-8-6-8-8-7-14-3-11v-11l3-5 24-14 22-13z"/><path fill="#60c0df" d="m439 624 11 3 3 1-3 9-14 31-13 30-19 43-9 21-10 23-1 1h-38l-6-1 6-11 8-13 15-24 13-21 14-23 13-21 12-19 17-28zm97 0 5 5 11 18 15 24 14 23 24 38 14 22 11 18 8 12v2h-44l-9-19-16-36-28-62-15-33-3-6v-2zm153-384 8 1 10 5 11 9 10 10 12 16 10 17 8 20 4 18v15l-3 6-3 2-7-1-12-7-19-19-11-14-8-14-8-17-6-21-1-6v-14l3-5z"/><path fill="#040d10" d="m732 433 6 1 2 3 4 20 4 10 5 6 8 5 23 7 4 3v6l-4 3-22 6-8 5-6 7-4 10-5 25-2 2h-6l-3-5-3-19-4-12-4-6-5-4-12-5-17-4-3-3v-6l4-3 19-5 10-5 6-7 4-10 5-22z"/><path fill="#c1c3c1" d="m690 335 4 4 8 10 10 11 14 11 2 1-1 3-26 14-21 12-15 8-5 1-11-4-11-8-10-9-9-11 5-5 14-8 24-14 25-15z"/><path fill="#60c0df" d="M511 671h2l17 37 14 31 20 44v3h-52l-1-29zm-46-1h1v116h-52l2-6 18-41 13-29 16-36z"/><path fill="#040d10" d="m298 331 7 1 3 12 3 11 5 8 6 5 20 7 2 2v6l-5 3-15 5-8 6-5 8-3 10-2 10-2 2h-5l-3-3-4-17-4-8-7-6-12-5-11-3-2-2 1-7 20-7 9-7 5-10 4-17z"/><path fill="#c1c3c1" d="M481 628h15l1 12v145l-1 1h-15z"/><path fill="#040d10" d="M649 537h6l4 17 5 8 8 5 13 4 2 4-3 3-14 5-7 6-4 8-4 14-1 1h-5l-4-15-4-8-1-3-4-2-13-5-6-2v-5l17-6 7-5 4-8zM521 239l5 1 3 7 3 9 4 5 10 5 9 4v5l-5 3-12 5-6 7-3 8-3 7-5 1-3-3-4-12-6-7-11-5-6-3-1-1v-5l7-3 9-4 6-5 4-9 3-9z"/><path fill="#c1c3c1" d="m425 490 3 1 6 8 7 7v2l-24 14-26 15-9 5-9-2-8-6-5-6 41-24z"/><path fill="#fafcfc" d="M479 506h14l8 4 6 8 2 7-1 10-4 7-7 6-5 2h-10l-7-3-7-6-3-6-1-4v-7l3-8 4-5zm-155 10h2l8 17 8 10 1 2-24 14-8 4-9-7-5-8-1-3v-10l2-4z"/><path fill="#c1c3c1" d="M460 589h57l9 1v13l-2 3h-72l-2-2v-14z"/><path fill="#040d10" d="m701 263 7 1 11 9 11 13 7 12 6 16 1 5v7l-4 1-5-5-12-19-13-21-10-14z"/><path fill="#c1c3c1" d="m335 536 5 5 3 4-24 14-8 4-9-7 5-4 23-13z"/><path fill="#5bb7d4" d="M272 534h5l4 18 7 12 4 5 9 7-1 3-7 1-8-5-7-8-5-9-3-9v-5l1 2 1-3 4 1v-2h-6v-5l2 3h4v-5z"/><path fill="#040d10" d="M245 441h9l5 4 2 4v6l-4 6-4 2h-7l-5-3-3-5 1-9zm213-223h7l5 3 3 4v8l-5 6-2 1h-8l-6-5-1-2v-8l5-6zm228 437 7 1 5 5 1 7-3 6-6 3-6-1-6-5-1-7 3-6zm-345-23h8l6 5 1 6-3 7-6 3-7-1-5-4-1-2v-7l3-5z"/></svg>